<?xml version="1.0" standalone="no"?>
<!DOCTYPE svg PUBLIC "-//W3C//DTD SVG 20010904//EN"
 "http://www.w3.org/TR/2001/REC-SVG-20010904/DTD/svg10.dtd">
<svg version="1.0" xmlns="http://www.w3.org/2000/svg"
 width="180.000000pt" height="180.000000pt" viewBox="0 0 180.000000 180.000000"
 preserveAspectRatio="xMidYMid meet">

<g transform="translate(0.000000,180.000000) scale(0.100000,-0.100000)"
fill="#000000" stroke="none">
<path d="M759 1497 c-121 -106 -114 -91 -98 -205 7 -53 12 -108 12 -122 -1
-14 5 -47 13 -75 27 -87 24 -82 35 -63 6 10 5 26 -1 43 -10 28 -50 255 -50
287 0 10 17 36 37 59 38 41 145 129 159 129 4 0 45 -39 92 -87 l85 -86 -74
-149 c-100 -203 -106 -209 -196 -215 -85 -7 -109 -24 -98 -72 4 -20 13 -31 28
-33 19 -3 23 -12 30 -66 7 -61 6 -68 -32 -150 -38 -84 -81 -188 -81 -197 0 -3
4 -5 8 -5 4 0 50 89 102 197 52 109 149 310 216 448 67 137 119 255 117 262
-7 19 -190 173 -206 173 -8 0 -52 -33 -98 -73z m74 -529 c-16 -28 -27 -34 -72
-41 -61 -10 -77 -1 -67 37 6 22 12 25 64 29 31 2 65 4 75 5 18 2 18 1 0 -30z
m-33 -63 c0 -3 -10 -25 -22 -48 l-23 -42 -3 33 c-4 45 3 62 28 62 11 0 20 -2
20 -5z"/>
<path d="M837 1433 c-13 -12 -7 -54 8 -59 15 -6 45 12 45 27 0 10 -29 39 -39
39 -4 0 -11 -3 -14 -7z m33 -28 c0 -8 -7 -15 -15 -15 -8 0 -15 7 -15 15 0 8 7
15 15 15 8 0 15 -7 15 -15z"/>
<path d="M1135 1294 c-8 -16 -61 -121 -116 -232 -56 -112 -108 -206 -116 -209
-7 -3 -13 -17 -13 -31 0 -14 -43 -108 -95 -209 -60 -115 -94 -190 -90 -201 7
-20 186 -176 207 -180 8 -1 58 42 112 98 90 93 97 102 91 132 -8 51 -33 266
-50 442 l-16 158 57 125 c31 68 54 126 51 130 -4 3 -13 -7 -22 -23z m-70 -565
c14 -112 28 -224 31 -249 l6 -45 -87 -92 c-48 -51 -92 -93 -99 -93 -6 0 -54
40 -105 88 l-95 88 90 164 89 165 3 -157 c4 -224 22 -206 22 22 l0 180 52 103
51 102 8 -36 c5 -20 20 -128 34 -240z"/>
</g>
</svg>
